<?xml version="1.0" encoding="UTF-8"?> <svg xmlns="http://www.w3.org/2000/svg" width="193" height="84" viewBox="0 0 193 84" fill="none"><rect width="57.6057" height="83.5986" fill="#3ACBA6"></rect><path d="M38.6057 55.5811H38.3952C37.6968 45.8149 33.9921 24.2024 32.1051 11.2405H26.1091C24.2603 24.1129 20.5101 47.1234 19.7376 55.8541H19.618C19.1588 47.2928 16.4012 24.4542 14.7031 11.2405H8.42969L16.1309 65.5684H22.457C24.3871 52.9925 27.7091 32.1706 28.8524 22.3809H28.9719C29.9406 31.3775 33.3368 52.8654 35.1401 65.5684H41.5044L49.8777 11.2428H43.8746C42.1765 24.5224 39.2227 46.2903 38.6057 55.5834V55.5811Z" fill="white"></path><path d="M49.8777 69.0607H8.42969V73.0613H49.8777V69.0607Z" fill="white"></path><path d="M70.7589 3.80645L76.4326 22.9602H78.6945L83.7775 7.80602L88.6312 22.9602H90.8931L96.2714 4.09925C96.4034 3.62267 96.5605 3.23642 96.7458 2.94361C96.9312 2.65081 97.2422 2.42965 97.682 2.27702L98.5019 2.01536V1.33319H93.6482V2.01536L94.3048 2.2116C94.8075 2.36423 95.0934 2.62277 95.1562 2.99345C95.2222 3.36101 95.1782 3.7971 95.0243 4.29549L91.2198 17.5963L87.0855 4.09925C86.9316 3.62267 86.8876 3.24265 86.9536 2.9623C87.0196 2.68196 87.2709 2.46391 87.7076 2.31128L88.6249 2.01848V1.33631H80.5888V2.01848L81.3114 2.31128C81.6601 2.46391 81.9114 2.66327 82.0653 2.91246C82.2193 3.16166 82.3701 3.51364 82.524 3.96842L83.1146 5.85607L79.2128 17.4L75.6377 4.06499C75.5058 3.5666 75.5121 3.17723 75.6534 2.89377C75.7948 2.61343 76.1184 2.39538 76.621 2.24275L77.309 2.01536V1.33319H68.8457V2.01536L69.2384 2.14619C69.6971 2.29882 70.0269 2.49195 70.2217 2.7318C70.4196 2.97165 70.5924 3.32986 70.7463 3.80645H70.7589Z" fill="white"></path><path d="M106.086 22.2126L105.724 22.116C105.31 21.9852 105.021 21.7921 104.854 21.5304C104.691 21.2719 104.609 20.923 104.609 20.49V11.709L104.707 7.08959L104.314 6.73137L98.5742 8.61902V9.20463L99.0329 9.30119C99.4695 9.38841 99.7711 9.55661 99.9345 9.80581C100.098 10.055 100.18 10.3976 100.18 10.8306C100.202 11.438 100.211 12.0299 100.211 12.603V20.4558C100.189 20.8887 100.101 21.2376 99.9502 21.4962C99.7963 21.7578 99.501 21.9509 99.0643 22.0818L98.5711 22.2126V22.8293H106.083V22.2126H106.086Z" fill="white"></path><path d="M102.344 4.9434C103.067 4.9434 103.676 4.71601 104.182 4.26123C104.685 3.80645 104.936 3.23019 104.936 2.53867C104.936 1.84716 104.685 1.24286 104.182 0.797423C103.679 0.351987 103.067 0.130827 102.344 0.130827C101.622 0.130827 101.009 0.351987 100.506 0.797423C100.004 1.24286 99.7523 1.82224 99.7523 2.53867C99.7523 3.2551 100.004 3.80645 100.506 4.26123C101.009 4.71601 101.622 4.9434 102.344 4.9434Z" fill="white"></path><path d="M111.429 22.3092C112.611 22.9602 113.977 23.2841 115.529 23.2841C117.081 23.2841 118.419 22.9539 119.547 22.2936C120.672 21.6332 121.564 20.705 122.221 19.5119L121.696 19.0229C121.127 19.6739 120.505 20.1785 119.827 20.5336C119.148 20.8919 118.262 21.0694 117.169 21.0694C115.595 21.0694 114.398 20.5804 113.578 19.6054C112.758 18.6304 112.337 17.0262 112.315 14.7928H122.189C122.255 14.5779 122.299 14.3443 122.321 14.0951C122.343 13.8459 122.353 13.5811 122.353 13.2976C122.353 12.0174 122.086 10.8867 121.548 9.89926C121.011 8.91182 120.254 8.13932 119.268 7.57552C118.284 7.01171 117.103 6.73137 115.724 6.73137C114.345 6.73137 113.072 7.06155 111.838 7.72192C110.603 8.38229 109.595 9.33234 108.819 10.569C108.043 11.8056 107.653 13.3132 107.653 15.0887C107.653 16.8642 107.986 18.2722 108.652 19.4964C109.318 20.7205 110.242 21.6581 111.423 22.3092H111.429ZM112.793 10.0986C113.066 9.1984 113.437 8.56918 113.908 8.21096C114.379 7.85275 114.929 7.67519 115.564 7.67519C116.723 7.67519 117.508 8.16424 117.926 9.13921C118.341 10.1142 118.429 11.6966 118.19 13.8864H112.318C112.362 12.2604 112.52 10.9988 112.793 10.0986Z" fill="white"></path><path d="M129.468 21.9509C130.103 22.4057 130.829 22.7421 131.648 22.9602C132.468 23.1782 133.295 23.2841 134.124 23.2841C135.371 23.2841 136.505 22.9695 137.536 22.3403C138.563 21.7111 139.383 20.7735 139.996 19.5275C140.608 18.2815 140.913 16.7365 140.913 14.8925C140.913 12.1171 140.31 10.0643 139.11 8.73116C137.906 7.39797 136.386 6.73137 134.551 6.73137C132.717 6.73137 131.086 7.25156 129.534 8.29195V4.87799L129.666 0.292804L129.239 0L123.631 1.3986V1.98421L124.058 2.08078C124.495 2.1898 124.797 2.36423 124.96 2.60097C125.123 2.84082 125.205 3.17412 125.205 3.61021V20.5212C125.205 21.4089 124.778 21.9509 123.927 22.1472L123.6 22.2126V22.8293L128.978 23.253L129.471 21.9509H129.468ZM129.635 9.17036C130.662 8.60656 131.667 8.32622 132.654 8.32622C133.398 8.32622 134.036 8.52246 134.573 8.91182C135.11 9.30119 135.519 9.98647 135.805 10.9614C136.087 11.9364 136.232 13.2914 136.232 15.0264C136.232 16.7615 136.078 18.1258 135.773 19.1226C135.465 20.1194 135.041 20.8233 134.495 21.2376C133.948 21.6488 133.313 21.8544 132.591 21.8544C131.52 21.8544 130.536 21.5834 129.638 21.0414V9.17036H129.635Z" fill="white"></path><path d="M146.492 22.3092C147.674 22.9602 149.04 23.2841 150.592 23.2841C152.144 23.2841 153.482 22.9539 154.61 22.2936C155.735 21.6332 156.627 20.705 157.284 19.5119L156.759 19.0229C156.19 19.6739 155.568 20.1785 154.89 20.5336C154.211 20.8919 153.325 21.0694 152.232 21.0694C150.658 21.0694 149.461 20.5804 148.641 19.6054C147.821 18.6304 147.4 17.0262 147.378 14.7928H157.252C157.318 14.5779 157.362 14.3443 157.384 14.0951C157.406 13.8459 157.415 13.5811 157.415 13.2976C157.415 12.0174 157.148 10.8867 156.611 9.89926C156.074 8.91182 155.317 8.13932 154.33 7.57552C153.347 7.01171 152.166 6.73137 150.787 6.73137C149.408 6.73137 148.135 7.06155 146.901 7.72192C145.666 8.38229 144.658 9.33234 143.882 10.569C143.106 11.8056 142.716 13.3132 142.716 15.0887C142.716 16.8642 143.049 18.2722 143.715 19.4964C144.381 20.7205 145.305 21.6581 146.486 22.3092H146.492ZM147.853 10.0986C148.126 9.1984 148.497 8.56918 148.968 8.21096C149.439 7.85275 149.989 7.67519 150.623 7.67519C151.783 7.67519 152.568 8.16424 152.986 9.13921C153.401 10.1142 153.489 11.6966 153.25 13.8864H147.378C147.422 12.2604 147.579 10.9988 147.853 10.0986Z" fill="white"></path><path d="M74.8618 52.2374C76.5676 53.1034 78.4808 53.5395 80.6014 53.5395C81.9334 53.5395 83.1712 53.3993 84.3084 53.1158C85.4457 52.8355 86.4824 52.4337 87.4248 51.9135L87.5568 47.2317H86.6709L85.4237 50.1909C85.2477 50.6239 85.0404 51.0101 84.8016 51.3466C84.5597 51.683 84.2236 51.9384 83.7838 52.1097C83.4131 52.2623 83.0392 52.3807 82.6685 52.4679C82.2978 52.5551 81.8172 52.5988 81.2266 52.5988C79.9354 52.5988 78.7761 52.2779 77.7489 51.6394C76.7216 51.0008 75.9048 49.9199 75.3047 48.4029C74.7016 46.886 74.4031 44.8363 74.4031 42.2572C74.4031 39.678 74.7204 37.6004 75.355 36.0958C75.9896 34.5882 76.8347 33.5104 77.8965 32.8594C78.9584 32.2084 80.1333 31.8845 81.4213 31.8845C82.1659 31.8845 82.8099 32.0153 83.3565 32.2738C83.7492 32.4265 84.0728 32.6756 84.3241 33.0214C84.5754 33.3672 84.8111 33.7596 85.031 34.1926L86.407 36.7624H87.2929L87.1609 32.5012C86.1996 31.981 85.1943 31.5854 84.1419 31.3144C83.0926 31.0434 81.9648 30.9064 80.7647 30.9064C79.2128 30.9064 77.7489 31.1493 76.3697 31.6384C74.9937 32.1274 73.7717 32.8532 72.713 33.8188C71.6511 34.7845 70.8217 35.9712 70.2217 37.3792C69.6185 38.7903 69.3201 40.4038 69.3201 42.226C69.3201 44.6557 69.8164 46.7146 70.8123 48.4061C71.8082 50.0975 73.1559 51.3777 74.8618 52.2437V52.2374Z" fill="white"></path><path d="M95.6714 40.9364C95.8568 40.6436 96.061 40.3882 96.2777 40.1733C96.5416 39.8711 96.8087 39.7341 97.082 39.7683C97.3553 39.7995 97.6003 39.9459 97.8202 40.2076L97.8862 40.273C98.5208 41.0548 99.2748 41.4442 100.148 41.4442C100.739 41.4442 101.241 41.2542 101.656 40.8742C102.071 40.4941 102.278 39.9366 102.278 39.1983C102.278 38.5255 102.071 37.9741 101.656 37.5412C101.241 37.1082 100.616 36.8902 99.7868 36.8902C99.1962 36.8902 98.6056 37.0521 98.015 37.3792C97.4244 37.7031 96.8778 38.1268 96.3751 38.647C95.8725 39.1672 95.4578 39.731 95.1279 40.3384V40.111L94.8326 37.2484L94.4399 36.8902L89.093 38.7778V39.3634L89.5862 39.4942C90.0229 39.5815 90.3182 39.7497 90.4721 39.9989C90.6261 40.2481 90.714 40.6125 90.736 41.0891V50.6177C90.736 51.0506 90.6544 51.3995 90.491 51.658C90.3276 51.9197 90.026 52.1035 89.5894 52.2094L89.0961 52.3714V52.9881H97.2956V52.3714L96.3123 52.0786C95.8976 51.9695 95.6023 51.7795 95.4264 51.5085C95.2504 51.2375 95.1625 50.8949 95.1625 50.4837V41.9644C95.3164 41.575 95.4861 41.2324 95.6714 40.9396V40.9364Z" fill="white"></path><path d="M105.036 50.6114C105.014 51.0444 104.926 51.3933 104.776 51.6518C104.622 51.9135 104.326 52.1066 103.89 52.2374L103.396 52.3683V52.985H110.908V52.3683L110.547 52.2717C110.132 52.1409 109.843 51.9477 109.676 51.6861C109.513 51.4275 109.431 51.0787 109.431 50.6457V41.8647L109.529 37.2453L109.136 36.887L103.396 38.7747V39.3603L103.855 39.4569C104.292 39.5441 104.593 39.7123 104.757 39.9615C104.92 40.2107 105.002 40.5533 105.002 40.9863C105.024 41.5937 105.033 42.1855 105.033 42.7587V50.6114H105.036Z" fill="white"></path><path d="M104.575 32.6912C104.575 33.3858 104.826 33.959 105.329 34.4138C105.831 34.8686 106.444 35.096 107.166 35.096C107.889 35.096 108.498 34.8686 109.004 34.4138C109.507 33.959 109.758 33.3827 109.758 32.6912C109.758 31.9997 109.507 31.3954 109.004 30.95C108.501 30.5045 107.889 30.2834 107.166 30.2834C106.444 30.2834 105.831 30.5045 105.329 30.95C104.826 31.3954 104.575 31.9748 104.575 32.6912Z" fill="white"></path><path d="M132.651 52.172L132.06 52.334V52.985H139.439V52.334L138.817 52.172C138.205 51.9976 137.9 51.5646 137.9 50.87V41.4722C137.9 39.8898 137.529 38.7311 136.785 37.9928C136.04 37.2546 134.925 36.887 133.439 36.887C132.456 36.887 131.46 37.1207 130.455 37.5848C129.449 38.052 128.529 38.6968 127.7 39.5192C127.373 38.6314 126.902 37.9679 126.289 37.5349C125.676 37.102 124.825 36.8839 123.732 36.8839C122.748 36.8839 121.784 37.1331 120.845 37.6315C119.905 38.1299 119.051 38.728 118.287 39.4195L118.058 37.239L117.665 36.8808L112.353 38.7685V39.3541L113.041 39.516C113.412 39.6033 113.654 39.7497 113.764 39.9552C113.874 40.1608 113.927 40.4474 113.927 40.8181C113.949 41.4909 113.958 42.0765 113.958 42.5749V50.8357C113.936 51.1815 113.87 51.4587 113.76 51.6643C113.651 51.8699 113.421 52.0287 113.072 52.1346L112.35 52.3309V52.9819H119.861V52.3309L119.305 52.1689C118.693 52.0163 118.388 51.5833 118.388 50.8669V40.329C119.547 39.3759 120.628 38.8993 121.636 38.8993C122.425 38.8993 122.981 39.0831 123.311 39.4506C123.638 39.8182 123.804 40.4474 123.804 41.3383V50.8357C123.804 51.1815 123.744 51.4587 123.625 51.6643C123.506 51.8699 123.27 52.0287 122.921 52.1346L122.233 52.3309V52.9819H129.644V52.3309L129.088 52.1689C128.739 52.0817 128.504 51.9353 128.381 51.7297C128.262 51.5241 128.19 51.2375 128.168 50.8669V42.6061C128.168 41.7619 128.102 41.0112 127.97 40.3633C128.604 39.8649 129.182 39.4973 129.707 39.2575C130.232 39.0177 130.791 38.8993 131.378 38.8993C132.145 38.8993 132.695 39.0675 133.034 39.4039C133.373 39.7403 133.543 40.3758 133.543 41.3071V50.8357C133.543 51.5303 133.248 51.9727 132.657 52.1689L132.651 52.172Z" fill="white"></path><path d="M144.589 35.0991C145.311 35.0991 145.921 34.8717 146.426 34.4169C146.929 33.9621 147.18 33.3859 147.18 32.6943C147.18 32.0028 146.929 31.3985 146.426 30.9531C145.924 30.5077 145.311 30.2865 144.589 30.2865C143.866 30.2865 143.253 30.5077 142.751 30.9531C142.248 31.3985 141.997 31.9779 141.997 32.6943C141.997 33.4108 142.248 33.9621 142.751 34.4169C143.253 34.8717 143.866 35.0991 144.589 35.0991Z" fill="white"></path><path d="M142.459 50.6114C142.437 51.0444 142.349 51.3933 142.198 51.6518C142.044 51.9135 141.749 52.1066 141.312 52.2374L140.819 52.3683V52.985H148.33V52.3683L147.969 52.2717C147.554 52.1409 147.265 51.9477 147.099 51.6861C146.935 51.4275 146.854 51.0787 146.854 50.6457V41.8647L146.951 37.2453L146.558 36.887L140.819 38.7747V39.3603L141.277 39.4569C141.714 39.5441 142.016 39.7123 142.179 39.9615C142.342 40.2107 142.424 40.5533 142.424 40.9863C142.446 41.5937 142.455 42.1855 142.455 42.7587V50.6114H142.459Z" fill="white"></path><path d="M155.477 37.2453L155.084 36.887L149.772 38.7747V39.3603L150.297 39.4911C150.733 39.5783 151.019 39.7465 151.148 39.9957C151.28 40.2449 151.355 40.5969 151.377 41.0517V50.6457C151.377 51.4898 151.016 52.0225 150.294 52.2405L149.769 52.3714V52.9881H157.28V52.3714L156.954 52.2748C156.187 52.0599 155.807 51.5272 155.807 50.68V40.2076C156.966 39.2762 158.081 38.8089 159.153 38.8089C159.919 38.8089 160.466 38.9834 160.793 39.3291C161.119 39.6749 161.286 40.2294 161.286 40.9863V50.6457C161.286 51.4712 160.925 52.0007 160.202 52.2405L159.709 52.3714V52.9881H167.252V52.3714L166.89 52.2748C166.102 52.0599 165.709 51.5272 165.709 50.68V41.6404C165.709 40.0362 165.32 38.8432 164.544 38.0645C163.768 37.2826 162.659 36.8933 161.214 36.8933C160.274 36.8933 159.316 37.1144 158.345 37.5599C157.371 38.0053 156.492 38.5722 155.706 39.2668L155.477 37.2515V37.2453Z" fill="white"></path><path d="M183.456 51.4867C182.557 51.4867 182.111 51.0195 182.111 50.0881V42.8366C182.111 40.734 181.596 39.217 180.569 38.2825C179.541 37.3512 178.055 36.8839 176.108 36.8839C174.926 36.8839 173.827 37.0366 172.812 37.3387C171.794 37.644 170.981 38.0987 170.368 38.7062C169.755 39.3136 169.451 40.0612 169.451 40.9489C169.451 41.4909 169.63 41.9301 169.991 42.2665C170.352 42.6029 170.805 42.7711 171.351 42.7711C171.942 42.7711 172.435 42.5718 172.828 42.17C173.221 41.7681 173.45 41.1358 173.516 40.2667L173.613 39.8431C173.701 39.1267 173.893 38.6127 174.188 38.2981C174.484 37.9835 174.882 37.8277 175.385 37.8277H175.483C176.29 37.8277 176.881 38.1112 177.254 38.6719C177.625 39.2357 177.81 40.2543 177.81 41.7276V44.0358C177.33 44.123 176.843 44.204 176.35 44.2788C175.856 44.3535 175.426 44.4376 175.055 44.5217C172.869 44.9329 171.267 45.5777 170.252 46.4561C169.234 47.3345 168.725 48.2939 168.725 49.3343C168.725 50.6582 169.155 51.6705 170.019 52.3745C170.883 53.0785 171.939 53.4304 173.186 53.4304C174.279 53.4304 175.165 53.2031 175.844 52.7483C176.522 52.2935 177.21 51.6954 177.911 50.9603C178.087 51.6985 178.451 52.2873 179.01 52.7327C179.57 53.1781 180.317 53.3993 181.257 53.3993C182.086 53.3993 182.743 53.2622 183.223 52.9912C183.704 52.7202 184.141 52.3371 184.536 51.8356L184.21 51.4774H183.456V51.4867ZM177.814 50.0912C177.223 50.546 176.73 50.8731 176.337 51.0662C175.944 51.2593 175.526 51.359 175.09 51.359C174.455 51.359 173.937 51.1472 173.532 50.7236C173.126 50.2999 172.925 49.6551 172.925 48.7892C172.925 47.7924 173.214 47.0012 173.796 46.4156C174.374 45.83 175.134 45.4282 176.076 45.2133C176.667 45.0824 177.245 44.9734 177.814 44.8893V50.0912Z" fill="white"></path><path d="M192.541 52.2374C192.126 52.1284 191.837 51.9384 191.671 51.6674C191.508 51.3964 191.413 51.0444 191.391 50.6114V35.0336L191.523 30.4485L191.096 30.1557L185.356 31.5231V32.1399L185.85 32.2707C186.286 32.3797 186.582 32.5479 186.736 32.7753C186.89 33.0027 186.965 33.3454 186.965 33.8001V46.1571C186.965 46.8953 186.959 47.6367 186.949 48.3843C186.937 49.1318 186.933 49.8763 186.933 50.6114C186.933 51.4556 186.572 52.0007 185.85 52.2374L185.356 52.3683V52.985H193V52.3683L192.541 52.2374Z" fill="white"></path><path d="M83.9471 62.9092C82.2853 62.065 80.3061 61.6414 78.0096 61.6414H69.3829V62.3236L70.0709 62.5198C70.7495 62.7379 71.0888 63.2892 71.0888 64.177C71.1108 65.4354 71.1202 66.6907 71.1202 67.9492V76.8111C71.1202 78.1007 71.1076 79.3654 71.0888 80.5989C71.0888 81.4648 70.7401 82.01 70.0395 82.2249L69.3829 82.4523V83.1345H77.419C79.7595 83.1345 81.8077 82.7108 83.5702 81.8667C85.3294 81.0225 86.696 79.7952 87.6699 78.191C88.6438 76.5869 89.1307 74.6369 89.1307 72.3381C89.1307 70.0393 88.6815 68.1579 87.7861 66.5661C86.8908 64.9713 85.609 63.7533 83.9503 62.9061L83.9471 62.9092ZM83.4539 78.2129C82.9952 79.6551 82.279 80.6799 81.3051 81.2873C80.3312 81.8947 79.0683 82.1969 77.5164 82.1969H75.8451C75.8231 80.6799 75.8137 79.1442 75.8137 77.5961V67.1237C75.8137 65.5943 75.8231 64.0835 75.8451 62.5883H77.6483C79.1563 62.5883 80.3878 62.8936 81.3397 63.4979C82.2915 64.1053 82.9952 65.1239 83.4539 66.5537C83.9126 67.9834 84.1419 69.924 84.1419 72.3755C84.1419 74.8269 83.9126 76.7706 83.4539 78.2129Z" fill="white"></path><path d="M102.247 67.8868C101.263 67.3231 100.082 67.0427 98.703 67.0427C97.3239 67.0427 96.0515 67.3729 94.8169 68.0332C93.5823 68.6936 92.5738 69.6437 91.7979 70.8803C91.0219 72.1169 90.6324 73.6246 90.6324 75.4001C90.6324 77.1756 90.9654 78.5835 91.6314 79.8077C92.2974 81.0319 93.221 81.9695 94.4022 82.6205C95.5834 83.2715 96.95 83.5955 98.5019 83.5955C100.054 83.5955 101.392 83.2653 102.52 82.6049C103.645 81.9445 104.537 81.0163 105.193 79.8233L104.669 79.3342C104.1 79.9853 103.478 80.4899 102.8 80.845C102.121 81.2032 101.235 81.3807 100.142 81.3807C98.5679 81.3807 97.371 80.8917 96.551 79.9167C95.7311 78.9417 95.3101 77.3376 95.2881 75.1041H105.162C105.228 74.8892 105.272 74.6556 105.294 74.4064C105.316 74.1572 105.325 73.8924 105.325 73.609C105.325 72.3287 105.058 71.198 104.521 70.2106C103.984 69.2232 103.227 68.4507 102.24 67.8868H102.247ZM101.166 74.1946H95.2944C95.3384 72.5686 95.4955 71.307 95.7688 70.4068C96.0421 69.5066 96.4128 68.8774 96.8841 68.5192C97.3553 68.161 97.9051 67.9834 98.5396 67.9834C99.6989 67.9834 100.484 68.4725 100.902 69.4474C101.317 70.4224 101.405 72.0048 101.166 74.1946Z" fill="white"></path><path d="M113.318 64.6006C113.415 63.6692 113.553 62.8562 113.726 62.1616C113.836 61.794 114.021 61.576 114.285 61.5106C114.546 61.4452 114.81 61.576 115.07 61.8999L115.463 62.3547C116.23 63.5259 117.113 64.1116 118.121 64.1116C118.756 64.1116 119.242 63.9433 119.582 63.6069C119.921 63.2705 120.091 62.822 120.091 62.2582C120.091 61.4576 119.736 60.8876 119.026 60.5512C118.316 60.2148 117.533 60.0466 116.682 60.0466C115.831 60.0466 114.91 60.1992 113.993 60.5013C113.076 60.8066 112.212 61.3455 111.401 62.1273C110.833 62.6693 110.346 63.2612 109.94 63.8997C109.535 64.5383 109.215 65.2921 108.973 66.1612C108.885 66.616 108.743 66.9679 108.545 67.2171C108.348 67.4663 108.03 67.6252 107.594 67.6875L106.871 67.8183V68.5348H108.74V76.3065C108.74 77.0448 108.734 77.7861 108.725 78.5337C108.712 79.2813 108.709 80.0351 108.709 80.7951C108.687 81.6206 108.238 82.1501 107.364 82.39L106.871 82.5208V83.1376H115.334V82.5208L114.483 82.2934C113.607 82.0972 113.17 81.5676 113.17 80.6986C113.17 79.9603 113.164 79.2314 113.154 78.5025C113.142 77.7768 113.138 77.0448 113.138 76.3065V68.5348H116.911V67.5255H113.138C113.16 66.5069 113.22 65.532 113.318 64.5975V64.6006Z" fill="white"></path><path d="M129.339 67.8868C128.356 67.3231 127.175 67.0427 125.796 67.0427C124.417 67.0427 123.144 67.3729 121.91 68.0332C120.675 68.6936 119.667 69.6437 118.891 70.8803C118.115 72.1169 117.725 73.6246 117.725 75.4001C117.725 77.1756 118.058 78.5835 118.724 79.8077C119.39 81.0319 120.314 81.9695 121.495 82.6205C122.676 83.2715 124.043 83.5955 125.595 83.5955C127.147 83.5955 128.485 83.2653 129.613 82.6049C130.737 81.9445 131.63 81.0163 132.286 79.8233L131.762 79.3342C131.193 79.9853 130.571 80.4899 129.892 80.845C129.214 81.2032 128.328 81.3807 127.235 81.3807C125.661 81.3807 124.464 80.8917 123.644 79.9167C122.824 78.9417 122.403 77.3376 122.381 75.1041H132.255C132.321 74.8892 132.365 74.6556 132.387 74.4064C132.409 74.1572 132.418 73.8924 132.418 73.609C132.418 72.3287 132.151 71.198 131.614 70.2106C131.077 69.2232 130.32 68.4507 129.333 67.8868H129.339ZM128.259 74.1946H122.387C122.431 72.5686 122.588 71.307 122.862 70.4068C123.135 69.5066 123.506 68.8774 123.977 68.5192C124.448 68.161 124.998 67.9834 125.632 67.9834C126.792 67.9834 127.577 68.4725 127.995 69.4474C128.41 70.4224 128.497 72.0048 128.259 74.1946Z" fill="white"></path><path d="M150.036 71.7899C150.036 70.1857 149.646 68.9927 148.87 68.2139C148.094 67.4321 146.986 67.0427 145.54 67.0427C144.601 67.0427 143.643 67.2639 142.672 67.7093C141.698 68.1547 140.819 68.7217 140.033 69.4163L139.804 67.4009L139.411 67.0427L134.099 68.9304V69.516L134.624 69.6468C135.06 69.734 135.346 69.9022 135.475 70.1514C135.607 70.4006 135.682 70.7526 135.704 71.2074V80.8014C135.704 81.6455 135.343 82.1782 134.62 82.3962L134.096 82.527V83.1438H141.607V82.527L141.28 82.4305C140.514 82.2155 140.134 81.6829 140.134 80.8356V70.3632C141.293 69.4319 142.408 68.9646 143.48 68.9646C144.246 68.9646 144.793 69.1391 145.119 69.4848C145.446 69.8306 145.613 70.385 145.613 71.142V80.8014C145.613 81.6268 145.251 82.1564 144.529 82.3962L144.036 82.527V83.1438H151.578V82.527L151.217 82.4305C150.429 82.2155 150.036 81.6829 150.036 80.8356V71.7899Z" fill="white"></path><path d="M165.156 80.845C164.5 81.225 163.67 81.415 162.665 81.415C160.959 81.415 159.703 80.8512 158.892 79.7236C158.081 78.596 157.679 76.9825 157.679 74.8768C157.679 72.4284 158.047 70.656 158.779 69.5596C159.511 68.4662 160.566 67.918 161.946 67.918C162.316 67.918 162.605 67.9834 162.816 68.1142C163.023 68.2451 163.171 68.4943 163.259 68.8618C163.303 69.1453 163.309 69.435 163.274 69.7402C163.243 70.0455 163.237 70.4131 163.259 70.846C163.325 71.5189 163.548 72.0702 163.931 72.5032C164.314 72.9362 164.811 73.1542 165.423 73.1542C165.992 73.1542 166.457 72.9922 166.818 72.6652C167.179 72.3412 167.358 71.874 167.358 71.2665C167.358 70.5501 167.129 69.8742 166.67 69.2356C166.212 68.5971 165.543 68.0706 164.669 67.6595C163.793 67.2483 162.734 67.0427 161.487 67.0427C159.957 67.0427 158.553 67.3729 157.271 68.0332C155.992 68.6936 154.968 69.6437 154.205 70.8803C153.438 72.1169 153.058 73.6121 153.058 75.3689C153.058 77.1257 153.404 78.6147 154.092 79.842C154.78 81.0661 155.725 82.0006 156.929 82.6392C158.132 83.2777 159.476 83.5986 160.962 83.5986C162.448 83.5986 163.853 83.2559 164.98 82.5738C166.105 81.8916 166.944 80.8979 167.49 79.599L166.966 79.2096C166.419 79.9261 165.819 80.4743 165.163 80.8512L165.156 80.845Z" fill="white"></path><path d="M180.603 67.8868C179.62 67.3231 178.439 67.0427 177.06 67.0427C175.68 67.0427 174.408 67.3729 173.173 68.0332C171.939 68.6936 170.93 69.6437 170.154 70.8803C169.378 72.1169 168.989 73.6246 168.989 75.4001C168.989 77.1756 169.322 78.5835 169.988 79.8077C170.654 81.0319 171.578 81.9695 172.759 82.6205C173.94 83.2715 175.307 83.5955 176.859 83.5955C178.41 83.5955 179.749 83.2653 180.877 82.6049C182.001 81.9445 182.893 81.0163 183.55 79.8233L183.025 79.3342C182.457 79.9853 181.835 80.4899 181.156 80.845C180.478 81.2032 179.592 81.3807 178.498 81.3807C176.924 81.3807 175.728 80.8917 174.908 79.9167C174.088 78.9417 173.667 77.3376 173.645 75.1041H183.519C183.585 74.8892 183.629 74.6556 183.651 74.4064C183.673 74.1572 183.682 73.8924 183.682 73.609C183.682 72.3287 183.415 71.198 182.878 70.2106C182.341 69.2232 181.583 68.4507 180.597 67.8868H180.603ZM179.523 74.1946H173.651C173.695 72.5686 173.852 71.307 174.125 70.4068C174.399 69.5066 174.769 68.8774 175.241 68.5192C175.712 68.161 176.262 67.9834 176.896 67.9834C178.055 67.9834 178.841 68.4725 179.259 69.4474C179.673 70.4224 179.761 72.0048 179.523 74.1946Z" fill="white"></path></svg> 